<svg width="1085" height="731" viewBox="0 0 1085 731" fill="none" xmlns="http://www.w3.org/2000/svg">
<circle cx="542.5" cy="362.5" r="143.5" fill="#3366FE" fill-opacity="0.05"/>
<circle cx="543.5" cy="362.5" r="281.5" fill="#3366FE" fill-opacity="0.02"/>
<circle cx="543.5" cy="362.5" r="54.5" fill="#3366FE" fill-opacity="0.05"/>
<circle cx="543" cy="356" r="206.425" stroke="#3366FE" stroke-width="5.15" stroke-dasharray="8 8"/>
<path d="M479.292 51L475.86 46.08C475.716 46.096 475.5 46.104 475.212 46.104H471.42V51H468.3V34.2H475.212C476.668 34.2 477.932 34.44 479.004 34.92C480.092 35.4 480.924 36.088 481.5 36.984C482.076 37.88 482.364 38.944 482.364 40.176C482.364 41.44 482.052 42.528 481.428 43.44C480.82 44.352 479.94 45.032 478.788 45.48L482.652 51H479.292ZM479.22 40.176C479.22 39.104 478.868 38.28 478.164 37.704C477.46 37.128 476.428 36.84 475.068 36.84H471.42V43.536H475.068C476.428 43.536 477.46 43.248 478.164 42.672C478.868 42.08 479.22 41.248 479.22 40.176ZM499.654 48.384V51H487.054V34.2H499.318V36.816H490.174V41.184H498.286V43.752H490.174V48.384H499.654ZM507.741 36.84H502.173V34.2H516.429V36.84H510.861V51H507.741V36.84ZM532.57 48.384V51H519.97V34.2H532.234V36.816H523.09V41.184H531.202V43.752H523.09V48.384H532.57ZM552.176 34.2V51H549.608L540.344 39.624V51H537.248V34.2H539.816L549.08 45.576V34.2H552.176ZM561.286 36.84H555.718V34.2H569.974V36.84H564.406V51H561.286V36.84ZM573.515 34.2H576.635V51H573.515V34.2ZM590.227 51.24C588.515 51.24 586.971 50.872 585.595 50.136C584.219 49.384 583.139 48.352 582.355 47.04C581.571 45.712 581.179 44.232 581.179 42.6C581.179 40.968 581.571 39.496 582.355 38.184C583.139 36.856 584.219 35.824 585.595 35.088C586.971 34.336 588.515 33.96 590.227 33.96C591.939 33.96 593.483 34.336 594.859 35.088C596.235 35.824 597.315 36.848 598.099 38.16C598.883 39.472 599.275 40.952 599.275 42.6C599.275 44.248 598.883 45.728 598.099 47.04C597.315 48.352 596.235 49.384 594.859 50.136C593.483 50.872 591.939 51.24 590.227 51.24ZM590.227 48.504C591.347 48.504 592.355 48.256 593.251 47.76C594.147 47.248 594.851 46.544 595.363 45.648C595.875 44.736 596.131 43.72 596.131 42.6C596.131 41.48 595.875 40.472 595.363 39.576C594.851 38.664 594.147 37.96 593.251 37.464C592.355 36.952 591.347 36.696 590.227 36.696C589.107 36.696 588.099 36.952 587.203 37.464C586.307 37.96 585.603 38.664 585.091 39.576C584.579 40.472 584.323 41.48 584.323 42.6C584.323 43.72 584.579 44.736 585.091 45.648C585.603 46.544 586.307 47.248 587.203 47.76C588.099 48.256 589.107 48.504 590.227 48.504ZM618.711 34.2V51H616.143L606.879 39.624V51H603.783V34.2H606.351L615.615 45.576V34.2H618.711Z" fill="#3366FE"/>
<path d="M447.414 682.2C448.87 682.2 450.134 682.44 451.206 682.92C452.294 683.4 453.126 684.088 453.702 684.984C454.278 685.88 454.566 686.944 454.566 688.176C454.566 689.392 454.278 690.456 453.702 691.368C453.126 692.264 452.294 692.952 451.206 693.432C450.134 693.912 448.87 694.152 447.414 694.152H443.622V699H440.502V682.2H447.414ZM447.27 691.512C448.63 691.512 449.662 691.224 450.366 690.648C451.07 690.072 451.422 689.248 451.422 688.176C451.422 687.104 451.07 686.28 450.366 685.704C449.662 685.128 448.63 684.84 447.27 684.84H443.622V691.512H447.27ZM471.482 696.384V699H458.882V682.2H471.146V684.816H462.002V689.184H470.114V691.752H462.002V696.384H471.482ZM487.152 699L483.72 694.08C483.576 694.096 483.36 694.104 483.072 694.104H479.28V699H476.16V682.2H483.072C484.528 682.2 485.792 682.44 486.864 682.92C487.952 683.4 488.784 684.088 489.36 684.984C489.936 685.88 490.224 686.944 490.224 688.176C490.224 689.44 489.912 690.528 489.288 691.44C488.68 692.352 487.8 693.032 486.648 693.48L490.512 699H487.152ZM487.08 688.176C487.08 687.104 486.728 686.28 486.024 685.704C485.32 685.128 484.288 684.84 482.928 684.84H479.28V691.536H482.928C484.288 691.536 485.32 691.248 486.024 690.672C486.728 690.08 487.08 689.248 487.08 688.176ZM498.035 684.816V689.928H506.147V692.568H498.035V699H494.915V682.2H507.179V684.816H498.035ZM519.056 699.24C517.344 699.24 515.8 698.872 514.424 698.136C513.048 697.384 511.968 696.352 511.184 695.04C510.4 693.712 510.008 692.232 510.008 690.6C510.008 688.968 510.4 687.496 511.184 686.184C511.968 684.856 513.048 683.824 514.424 683.088C515.8 682.336 517.344 681.96 519.056 681.96C520.768 681.96 522.312 682.336 523.688 683.088C525.064 683.824 526.144 684.848 526.928 686.16C527.712 687.472 528.104 688.952 528.104 690.6C528.104 692.248 527.712 693.728 526.928 695.04C526.144 696.352 525.064 697.384 523.688 698.136C522.312 698.872 520.768 699.24 519.056 699.24ZM519.056 696.504C520.176 696.504 521.184 696.256 522.08 695.76C522.976 695.248 523.68 694.544 524.192 693.648C524.704 692.736 524.96 691.72 524.96 690.6C524.96 689.48 524.704 688.472 524.192 687.576C523.68 686.664 522.976 685.96 522.08 685.464C521.184 684.952 520.176 684.696 519.056 684.696C517.936 684.696 516.928 684.952 516.032 685.464C515.136 685.96 514.432 686.664 513.92 687.576C513.408 688.472 513.152 689.48 513.152 690.6C513.152 691.72 513.408 692.736 513.92 693.648C514.432 694.544 515.136 695.248 516.032 695.76C516.928 696.256 517.936 696.504 519.056 696.504ZM543.603 699L540.171 694.08C540.027 694.096 539.811 694.104 539.523 694.104H535.731V699H532.611V682.2H539.523C540.979 682.2 542.243 682.44 543.315 682.92C544.403 683.4 545.235 684.088 545.811 684.984C546.387 685.88 546.675 686.944 546.675 688.176C546.675 689.44 546.363 690.528 545.739 691.44C545.131 692.352 544.251 693.032 543.099 693.48L546.963 699H543.603ZM543.531 688.176C543.531 687.104 543.179 686.28 542.475 685.704C541.771 685.128 540.739 684.84 539.379 684.84H535.731V691.536H539.379C540.739 691.536 541.771 691.248 542.475 690.672C543.179 690.08 543.531 689.248 543.531 688.176ZM566.798 699L566.774 687.864L561.254 697.08H559.862L554.342 688.008V699H551.366V682.2H553.934L560.606 693.336L567.158 682.2H569.726L569.75 699H566.798ZM586.384 695.112H577.984L576.328 699H573.112L580.672 682.2H583.744L591.328 699H588.064L586.384 695.112ZM585.352 692.664L582.184 685.32L579.04 692.664H585.352ZM609.593 682.2V699H607.025L597.761 687.624V699H594.665V682.2H597.233L606.497 693.576V682.2H609.593ZM623.07 699.24C621.374 699.24 619.838 698.872 618.462 698.136C617.102 697.384 616.03 696.352 615.246 695.04C614.478 693.728 614.094 692.248 614.094 690.6C614.094 688.952 614.486 687.472 615.27 686.16C616.054 684.848 617.126 683.824 618.486 683.088C619.862 682.336 621.398 681.96 623.094 681.96C624.47 681.96 625.726 682.2 626.862 682.68C627.998 683.16 628.958 683.856 629.742 684.768L627.726 686.664C626.51 685.352 625.014 684.696 623.238 684.696C622.086 684.696 621.054 684.952 620.142 685.464C619.23 685.96 618.518 686.656 618.006 687.552C617.494 688.448 617.238 689.464 617.238 690.6C617.238 691.736 617.494 692.752 618.006 693.648C618.518 694.544 619.23 695.248 620.142 695.76C621.054 696.256 622.086 696.504 623.238 696.504C625.014 696.504 626.51 695.84 627.726 694.512L629.742 696.432C628.958 697.344 627.99 698.04 626.838 698.52C625.702 699 624.446 699.24 623.07 699.24ZM646.532 696.384V699H633.932V682.2H646.196V684.816H637.052V689.184H645.164V691.752H637.052V696.384H646.532Z" fill="#3366FE"/>
<path d="M862.256 346.2H869.6C871.392 346.2 872.984 346.552 874.376 347.256C875.768 347.944 876.848 348.928 877.616 350.208C878.384 351.472 878.768 352.936 878.768 354.6C878.768 356.264 878.384 357.736 877.616 359.016C876.848 360.28 875.768 361.264 874.376 361.968C872.984 362.656 871.392 363 869.6 363H862.256V346.2ZM869.456 360.36C870.688 360.36 871.768 360.128 872.696 359.664C873.64 359.184 874.36 358.512 874.856 357.648C875.368 356.768 875.624 355.752 875.624 354.6C875.624 353.448 875.368 352.44 874.856 351.576C874.36 350.696 873.64 350.024 872.696 349.56C871.768 349.08 870.688 348.84 869.456 348.84H865.376V360.36H869.456ZM895.884 360.384V363H883.284V346.2H895.548V348.816H886.404V353.184H894.516V355.752H886.404V360.384H895.884ZM915.688 346.2L908.368 363H905.296L897.952 346.2H901.336L906.928 359.16L912.568 346.2H915.688ZM931.261 360.384V363H918.661V346.2H930.925V348.816H921.781V353.184H929.893V355.752H921.781V360.384H931.261ZM935.939 346.2H939.059V360.36H947.843V363H935.939V346.2ZM959.049 363.24C957.337 363.24 955.793 362.872 954.417 362.136C953.041 361.384 951.961 360.352 951.177 359.04C950.393 357.712 950.001 356.232 950.001 354.6C950.001 352.968 950.393 351.496 951.177 350.184C951.961 348.856 953.041 347.824 954.417 347.088C955.793 346.336 957.337 345.96 959.049 345.96C960.761 345.96 962.305 346.336 963.681 347.088C965.057 347.824 966.137 348.848 966.921 350.16C967.705 351.472 968.097 352.952 968.097 354.6C968.097 356.248 967.705 357.728 966.921 359.04C966.137 360.352 965.057 361.384 963.681 362.136C962.305 362.872 960.761 363.24 959.049 363.24ZM959.049 360.504C960.169 360.504 961.177 360.256 962.073 359.76C962.969 359.248 963.673 358.544 964.185 357.648C964.697 356.736 964.953 355.72 964.953 354.6C964.953 353.48 964.697 352.472 964.185 351.576C963.673 350.664 962.969 349.96 962.073 349.464C961.177 348.952 960.169 348.696 959.049 348.696C957.929 348.696 956.921 348.952 956.025 349.464C955.129 349.96 954.425 350.664 953.913 351.576C953.401 352.472 953.145 353.48 953.145 354.6C953.145 355.72 953.401 356.736 953.913 357.648C954.425 358.544 955.129 359.248 956.025 359.76C956.921 360.256 957.929 360.504 959.049 360.504ZM979.516 346.2C980.972 346.2 982.236 346.44 983.308 346.92C984.396 347.4 985.228 348.088 985.804 348.984C986.38 349.88 986.668 350.944 986.668 352.176C986.668 353.392 986.38 354.456 985.804 355.368C985.228 356.264 984.396 356.952 983.308 357.432C982.236 357.912 980.972 358.152 979.516 358.152H975.724V363H972.604V346.2H979.516ZM979.372 355.512C980.732 355.512 981.764 355.224 982.468 354.648C983.172 354.072 983.524 353.248 983.524 352.176C983.524 351.104 983.172 350.28 982.468 349.704C981.764 349.128 980.732 348.84 979.372 348.84H975.724V355.512H979.372ZM1006.42 363L1006.39 351.864L1000.87 361.08H999.48L993.96 352.008V363H990.984V346.2H993.552L1000.22 357.336L1006.78 346.2H1009.34L1009.37 363H1006.42ZM1027.71 360.384V363H1015.11V346.2H1027.37V348.816H1018.23V353.184H1026.34V355.752H1018.23V360.384H1027.71ZM1047.31 346.2V363H1044.74L1035.48 351.624V363H1032.38V346.2H1034.95L1044.22 357.576V346.2H1047.31ZM1056.42 348.84H1050.85V346.2H1065.11V348.84H1059.54V363H1056.42V348.84Z" fill="#3366FE"/>
<path d="M54.8882 363.24C53.1922 363.24 51.6562 362.872 50.2802 362.136C48.9202 361.384 47.8482 360.352 47.0642 359.04C46.2962 357.728 45.9122 356.248 45.9122 354.6C45.9122 352.952 46.3042 351.472 47.0882 350.16C47.8722 348.848 48.9442 347.824 50.3042 347.088C51.6802 346.336 53.2162 345.96 54.9122 345.96C56.2882 345.96 57.5442 346.2 58.6802 346.68C59.8162 347.16 60.7762 347.856 61.5602 348.768L59.5442 350.664C58.3282 349.352 56.8322 348.696 55.0562 348.696C53.9042 348.696 52.8722 348.952 51.9602 349.464C51.0482 349.96 50.3362 350.656 49.8242 351.552C49.3122 352.448 49.0562 353.464 49.0562 354.6C49.0562 355.736 49.3122 356.752 49.8242 357.648C50.3362 358.544 51.0482 359.248 51.9602 359.76C52.8722 360.256 53.9042 360.504 55.0562 360.504C56.8322 360.504 58.3282 359.84 59.5442 358.512L61.5602 360.432C60.7762 361.344 59.8082 362.04 58.6562 362.52C57.5202 363 56.2642 363.24 54.8882 363.24ZM73.2462 363.24C71.5342 363.24 69.9902 362.872 68.6142 362.136C67.2382 361.384 66.1582 360.352 65.3742 359.04C64.5902 357.712 64.1982 356.232 64.1982 354.6C64.1982 352.968 64.5902 351.496 65.3742 350.184C66.1582 348.856 67.2382 347.824 68.6142 347.088C69.9902 346.336 71.5342 345.96 73.2462 345.96C74.9582 345.96 76.5022 346.336 77.8782 347.088C79.2542 347.824 80.3342 348.848 81.1182 350.16C81.9022 351.472 82.2942 352.952 82.2942 354.6C82.2942 356.248 81.9022 357.728 81.1182 359.04C80.3342 360.352 79.2542 361.384 77.8782 362.136C76.5022 362.872 74.9582 363.24 73.2462 363.24ZM73.2462 360.504C74.3662 360.504 75.3742 360.256 76.2702 359.76C77.1662 359.248 77.8702 358.544 78.3822 357.648C78.8942 356.736 79.1502 355.72 79.1502 354.6C79.1502 353.48 78.8942 352.472 78.3822 351.576C77.8702 350.664 77.1662 349.96 76.2702 349.464C75.3742 348.952 74.3662 348.696 73.2462 348.696C72.1262 348.696 71.1182 348.952 70.2222 349.464C69.3262 349.96 68.6222 350.664 68.1102 351.576C67.5982 352.472 67.3422 353.48 67.3422 354.6C67.3422 355.72 67.5982 356.736 68.1102 357.648C68.6222 358.544 69.3262 359.248 70.2222 359.76C71.1182 360.256 72.1262 360.504 73.2462 360.504ZM102.233 363L102.209 351.864L96.6893 361.08H95.2973L89.7773 352.008V363H86.8013V346.2H89.3693L96.0413 357.336L102.593 346.2H105.161L105.185 363H102.233ZM117.835 346.2C119.291 346.2 120.555 346.44 121.627 346.92C122.715 347.4 123.547 348.088 124.123 348.984C124.699 349.88 124.987 350.944 124.987 352.176C124.987 353.392 124.699 354.456 124.123 355.368C123.547 356.264 122.715 356.952 121.627 357.432C120.555 357.912 119.291 358.152 117.835 358.152H114.043V363H110.923V346.2H117.835ZM117.691 355.512C119.051 355.512 120.083 355.224 120.787 354.648C121.491 354.072 121.843 353.248 121.843 352.176C121.843 351.104 121.491 350.28 120.787 349.704C120.083 349.128 119.051 348.84 117.691 348.84H114.043V355.512H117.691ZM129.303 346.2H132.423V360.36H141.207V363H129.303V346.2ZM144.87 346.2H147.99V363H144.87V346.2ZM164.63 359.112H156.23L154.574 363H151.358L158.918 346.2H161.99L169.574 363H166.31L164.63 359.112ZM163.598 356.664L160.43 349.32L157.286 356.664H163.598ZM187.839 346.2V363H185.271L176.007 351.624V363H172.911V346.2H175.479L184.743 357.576V346.2H187.839ZM201.316 363.24C199.62 363.24 198.084 362.872 196.708 362.136C195.348 361.384 194.276 360.352 193.492 359.04C192.724 357.728 192.34 356.248 192.34 354.6C192.34 352.952 192.732 351.472 193.516 350.16C194.3 348.848 195.372 347.824 196.732 347.088C198.108 346.336 199.644 345.96 201.34 345.96C202.716 345.96 203.972 346.2 205.108 346.68C206.244 347.16 207.204 347.856 207.988 348.768L205.972 350.664C204.756 349.352 203.26 348.696 201.484 348.696C200.332 348.696 199.3 348.952 198.388 349.464C197.476 349.96 196.764 350.656 196.252 351.552C195.74 352.448 195.484 353.464 195.484 354.6C195.484 355.736 195.74 356.752 196.252 357.648C196.764 358.544 197.476 359.248 198.388 359.76C199.3 360.256 200.332 360.504 201.484 360.504C203.26 360.504 204.756 359.84 205.972 358.512L207.988 360.432C207.204 361.344 206.236 362.04 205.084 362.52C203.948 363 202.692 363.24 201.316 363.24ZM224.778 360.384V363H212.178V346.2H224.442V348.816H215.298V353.184H223.41V355.752H215.298V360.384H224.778Z" fill="#3366FE"/>
<path d="M470.291 364.52H456.291L453.531 371H448.171L460.771 343H465.891L478.531 371H473.091L470.291 364.52ZM468.571 360.44L463.291 348.2L458.051 360.44H468.571ZM493.732 349.4C496.425 349.4 498.585 350.187 500.212 351.76C501.839 353.333 502.652 355.667 502.652 358.76V371H497.652V359.4C497.652 357.533 497.212 356.133 496.332 355.2C495.452 354.24 494.199 353.76 492.572 353.76C490.732 353.76 489.279 354.32 488.212 355.44C487.145 356.533 486.612 358.12 486.612 360.2V371H481.612V349.64H486.372V352.4C487.199 351.413 488.239 350.667 489.492 350.16C490.745 349.653 492.159 349.4 493.732 349.4ZM517.155 349.4C520.302 349.4 522.702 350.16 524.355 351.68C526.035 353.173 526.875 355.44 526.875 358.48V371H522.155V368.4C521.542 369.333 520.662 370.053 519.515 370.56C518.395 371.04 517.035 371.28 515.435 371.28C513.835 371.28 512.435 371.013 511.235 370.48C510.035 369.92 509.102 369.16 508.435 368.2C507.795 367.213 507.475 366.107 507.475 364.88C507.475 362.96 508.182 361.427 509.595 360.28C511.035 359.107 513.288 358.52 516.355 358.52H521.875V358.2C521.875 356.707 521.422 355.56 520.515 354.76C519.635 353.96 518.315 353.56 516.555 353.56C515.355 353.56 514.168 353.747 512.995 354.12C511.848 354.493 510.875 355.013 510.075 355.68L508.115 352.04C509.235 351.187 510.582 350.533 512.155 350.08C513.728 349.627 515.395 349.4 517.155 349.4ZM516.475 367.64C517.728 367.64 518.835 367.36 519.795 366.8C520.782 366.213 521.475 365.387 521.875 364.32V361.84H516.715C513.835 361.84 512.395 362.787 512.395 364.68C512.395 365.587 512.755 366.307 513.475 366.84C514.195 367.373 515.195 367.64 516.475 367.64ZM533.292 341.32H538.292V371H533.292V341.32ZM564.854 349.64L554.854 372.72C553.921 375.04 552.788 376.667 551.454 377.6C550.121 378.56 548.508 379.04 546.614 379.04C545.548 379.04 544.494 378.867 543.454 378.52C542.414 378.173 541.561 377.693 540.894 377.08L542.894 373.4C543.374 373.853 543.934 374.213 544.574 374.48C545.241 374.747 545.908 374.88 546.574 374.88C547.454 374.88 548.174 374.653 548.734 374.2C549.321 373.747 549.854 372.987 550.334 371.92L550.694 371.08L541.374 349.64H546.574L553.294 365.44L560.054 349.64H564.854ZM581.405 369.84C580.818 370.32 580.098 370.68 579.245 370.92C578.418 371.16 577.538 371.28 576.605 371.28C574.258 371.28 572.445 370.667 571.165 369.44C569.885 368.213 569.245 366.427 569.245 364.08V353.8H565.725V349.8H569.245V344.92H574.245V349.8H579.965V353.8H574.245V363.96C574.245 365 574.498 365.8 575.005 366.36C575.512 366.893 576.245 367.16 577.205 367.16C578.325 367.16 579.258 366.867 580.005 366.28L581.405 369.84ZM585.518 349.64H590.518V371H585.518V349.64ZM588.038 346.12C587.132 346.12 586.372 345.84 585.758 345.28C585.145 344.693 584.838 343.973 584.838 343.12C584.838 342.267 585.145 341.56 585.758 341C586.372 340.413 587.132 340.12 588.038 340.12C588.945 340.12 589.705 340.4 590.318 340.96C590.932 341.493 591.238 342.173 591.238 343C591.238 343.88 590.932 344.627 590.318 345.24C589.732 345.827 588.972 346.12 588.038 346.12ZM606.881 371.28C604.667 371.28 602.681 370.813 600.921 369.88C599.161 368.947 597.787 367.653 596.801 366C595.814 364.32 595.321 362.427 595.321 360.32C595.321 358.213 595.814 356.333 596.801 354.68C597.787 353.027 599.147 351.733 600.881 350.8C602.641 349.867 604.641 349.4 606.881 349.4C608.987 349.4 610.827 349.827 612.401 350.68C614.001 351.533 615.201 352.76 616.001 354.36L612.161 356.6C611.547 355.613 610.774 354.88 609.841 354.4C608.934 353.893 607.934 353.64 606.841 353.64C604.974 353.64 603.427 354.253 602.201 355.48C600.974 356.68 600.361 358.293 600.361 360.32C600.361 362.347 600.961 363.973 602.161 365.2C603.387 366.4 604.947 367 606.841 367C607.934 367 608.934 366.76 609.841 366.28C610.774 365.773 611.547 365.027 612.161 364.04L616.001 366.28C615.174 367.88 613.961 369.12 612.361 370C610.787 370.853 608.961 371.28 606.881 371.28ZM626.923 371.28C625.19 371.28 623.496 371.053 621.843 370.6C620.19 370.147 618.87 369.573 617.883 368.88L619.803 365.08C620.763 365.72 621.91 366.24 623.243 366.64C624.603 367.013 625.936 367.2 627.243 367.2C630.23 367.2 631.723 366.413 631.723 364.84C631.723 364.093 631.336 363.573 630.563 363.28C629.816 362.987 628.603 362.707 626.923 362.44C625.163 362.173 623.723 361.867 622.603 361.52C621.51 361.173 620.55 360.573 619.723 359.72C618.923 358.84 618.523 357.627 618.523 356.08C618.523 354.053 619.363 352.44 621.043 351.24C622.75 350.013 625.043 349.4 627.923 349.4C629.39 349.4 630.856 349.573 632.323 349.92C633.79 350.24 634.99 350.68 635.923 351.24L634.003 355.04C632.19 353.973 630.15 353.44 627.883 353.44C626.416 353.44 625.296 353.667 624.523 354.12C623.776 354.547 623.403 355.12 623.403 355.84C623.403 356.64 623.803 357.213 624.603 357.56C625.43 357.88 626.696 358.187 628.403 358.48C630.11 358.747 631.51 359.053 632.603 359.4C633.696 359.747 634.63 360.333 635.403 361.16C636.203 361.987 636.603 363.16 636.603 364.68C636.603 366.68 635.736 368.28 634.003 369.48C632.27 370.68 629.91 371.28 626.923 371.28Z" fill="black"/>
<path d="M545.575 75L545.575 281" stroke="white" stroke-width="3" stroke-linecap="round"/>
<path d="M545.575 417L545.575 623" stroke="white" stroke-width="3" stroke-linecap="round"/>
<path d="M674 357L840 357" stroke="white" stroke-width="3" stroke-linecap="round"/>
<path d="M246 357L412 357" stroke="white" stroke-width="3" stroke-linecap="round"/>
</svg>
