<svg width="1085" height="731" viewBox="0 0 1085 731" fill="none" xmlns="http://www.w3.org/2000/svg">
<circle cx="543" cy="366" r="47.425" stroke="black" stroke-width="5.15"/>
<circle cx="543" cy="366" r="97.425" stroke="black" stroke-width="5.15"/>
<circle cx="543" cy="366" r="147.425" stroke="black" stroke-width="5.15"/>
<circle cx="543" cy="366" r="197.425" stroke="black" stroke-width="5.15"/>
<circle cx="543" cy="366" r="247.425" stroke="black" stroke-width="5.15"/>
<path d="M360.874 91.24C359.162 91.24 357.618 90.872 356.242 90.136C354.866 89.384 353.786 88.352 353.002 87.04C352.218 85.712 351.826 84.232 351.826 82.6C351.826 80.968 352.218 79.496 353.002 78.184C353.786 76.856 354.866 75.824 356.242 75.088C357.618 74.336 359.162 73.96 360.874 73.96C362.586 73.96 364.13 74.336 365.506 75.088C366.882 75.824 367.962 76.848 368.746 78.16C369.53 79.472 369.922 80.952 369.922 82.6C369.922 84.248 369.53 85.728 368.746 87.04C367.962 88.352 366.882 89.384 365.506 90.136C364.13 90.872 362.586 91.24 360.874 91.24ZM360.874 88.504C361.994 88.504 363.002 88.256 363.898 87.76C364.794 87.248 365.498 86.544 366.01 85.648C366.522 84.736 366.778 83.72 366.778 82.6C366.778 81.48 366.522 80.472 366.01 79.576C365.498 78.664 364.794 77.96 363.898 77.464C363.002 76.952 361.994 76.696 360.874 76.696C359.754 76.696 358.746 76.952 357.85 77.464C356.954 77.96 356.25 78.664 355.738 79.576C355.226 80.472 354.97 81.48 354.97 82.6C354.97 83.72 355.226 84.736 355.738 85.648C356.25 86.544 356.954 87.248 357.85 87.76C358.746 88.256 359.754 88.504 360.874 88.504ZM380.213 83.968L377.549 86.704V91H374.429V74.2H377.549V82.816L385.853 74.2H389.357L382.301 81.712L389.789 91H386.141L380.213 83.968ZM404.106 91L400.674 86.08C400.53 86.096 400.314 86.104 400.026 86.104H396.234V91H393.114V74.2H400.026C401.482 74.2 402.746 74.44 403.818 74.92C404.906 75.4 405.738 76.088 406.314 76.984C406.89 77.88 407.178 78.944 407.178 80.176C407.178 81.44 406.866 82.528 406.242 83.44C405.634 84.352 404.754 85.032 403.602 85.48L407.466 91H404.106ZM404.034 80.176C404.034 79.104 403.682 78.28 402.978 77.704C402.274 77.128 401.242 76.84 399.882 76.84H396.234V83.536H399.882C401.242 83.536 402.274 83.248 402.978 82.672C403.682 82.08 404.034 81.248 404.034 80.176ZM412.564 73.024C413.124 73.024 413.588 73.208 413.956 73.576C414.324 73.944 414.508 74.416 414.508 74.992C414.508 75.28 414.468 75.56 414.388 75.832C414.324 76.104 414.188 76.512 413.98 77.056L412.732 80.464H410.788L411.748 76.768C411.396 76.64 411.116 76.424 410.908 76.12C410.716 75.8 410.62 75.424 410.62 74.992C410.62 74.416 410.804 73.944 411.172 73.576C411.54 73.208 412.004 73.024 412.564 73.024ZM424.37 91.24C423.074 91.24 421.818 91.056 420.602 90.688C419.402 90.32 418.45 89.832 417.746 89.224L418.826 86.8C419.514 87.344 420.354 87.792 421.346 88.144C422.354 88.48 423.362 88.648 424.37 88.648C425.618 88.648 426.546 88.448 427.154 88.048C427.778 87.648 428.09 87.12 428.09 86.464C428.09 85.984 427.914 85.592 427.562 85.288C427.226 84.968 426.794 84.72 426.266 84.544C425.738 84.368 425.018 84.168 424.106 83.944C422.826 83.64 421.786 83.336 420.986 83.032C420.202 82.728 419.522 82.256 418.946 81.616C418.386 80.96 418.106 80.08 418.106 78.976C418.106 78.048 418.354 77.208 418.85 76.456C419.362 75.688 420.122 75.08 421.13 74.632C422.154 74.184 423.402 73.96 424.874 73.96C425.898 73.96 426.906 74.088 427.898 74.344C428.89 74.6 429.746 74.968 430.466 75.448L429.482 77.872C428.746 77.44 427.978 77.112 427.178 76.888C426.378 76.664 425.602 76.552 424.85 76.552C423.618 76.552 422.698 76.76 422.09 77.176C421.498 77.592 421.202 78.144 421.202 78.832C421.202 79.312 421.37 79.704 421.706 80.008C422.058 80.312 422.498 80.552 423.026 80.728C423.554 80.904 424.274 81.104 425.186 81.328C426.434 81.616 427.458 81.92 428.258 82.24C429.058 82.544 429.738 83.016 430.298 83.656C430.874 84.296 431.162 85.16 431.162 86.248C431.162 87.176 430.906 88.016 430.394 88.768C429.898 89.52 429.138 90.12 428.114 90.568C427.09 91.016 425.842 91.24 424.37 91.24Z" fill="#3366FE"/>
<path d="M675.856 88.384V91H663.256V74.2H675.52V76.816H666.376V81.184H674.488V83.752H666.376V88.384H675.856ZM680.534 74.2H687.878C689.67 74.2 691.262 74.552 692.654 75.256C694.046 75.944 695.126 76.928 695.894 78.208C696.662 79.472 697.046 80.936 697.046 82.6C697.046 84.264 696.662 85.736 695.894 87.016C695.126 88.28 694.046 89.264 692.654 89.968C691.262 90.656 689.67 91 687.878 91H680.534V74.2ZM687.734 88.36C688.966 88.36 690.046 88.128 690.974 87.664C691.918 87.184 692.638 86.512 693.134 85.648C693.646 84.768 693.902 83.752 693.902 82.6C693.902 81.448 693.646 80.44 693.134 79.576C692.638 78.696 691.918 78.024 690.974 77.56C690.046 77.08 688.966 76.84 687.734 76.84H683.654V88.36H687.734ZM708.786 91.24C706.466 91.24 704.658 90.592 703.362 89.296C702.066 87.984 701.418 86.112 701.418 83.68V74.2H704.538V83.56C704.538 86.856 705.962 88.504 708.81 88.504C711.642 88.504 713.058 86.856 713.058 83.56V74.2H716.13V83.68C716.13 86.112 715.482 87.984 714.186 89.296C712.906 90.592 711.106 91.24 708.786 91.24ZM729.476 91.24C727.78 91.24 726.244 90.872 724.868 90.136C723.508 89.384 722.436 88.352 721.652 87.04C720.884 85.728 720.5 84.248 720.5 82.6C720.5 80.952 720.892 79.472 721.676 78.16C722.46 76.848 723.532 75.824 724.892 75.088C726.268 74.336 727.804 73.96 729.5 73.96C730.876 73.96 732.132 74.2 733.268 74.68C734.404 75.16 735.364 75.856 736.148 76.768L734.132 78.664C732.916 77.352 731.42 76.696 729.644 76.696C728.492 76.696 727.46 76.952 726.548 77.464C725.636 77.96 724.924 78.656 724.412 79.552C723.9 80.448 723.644 81.464 723.644 82.6C723.644 83.736 723.9 84.752 724.412 85.648C724.924 86.544 725.636 87.248 726.548 87.76C727.46 88.256 728.492 88.504 729.644 88.504C731.42 88.504 732.916 87.84 734.132 86.512L736.148 88.432C735.364 89.344 734.396 90.04 733.244 90.52C732.108 91 730.852 91.24 729.476 91.24ZM750.882 87.112H742.482L740.826 91H737.61L745.17 74.2H748.242L755.826 91H752.562L750.882 87.112ZM749.85 84.664L746.682 77.32L743.538 84.664H749.85ZM761.727 76.84H756.159V74.2H770.415V76.84H764.847V91H761.727V76.84ZM773.956 74.2H777.076V91H773.956V74.2ZM790.668 91.24C788.956 91.24 787.412 90.872 786.036 90.136C784.66 89.384 783.58 88.352 782.796 87.04C782.012 85.712 781.62 84.232 781.62 82.6C781.62 80.968 782.012 79.496 782.796 78.184C783.58 76.856 784.66 75.824 786.036 75.088C787.412 74.336 788.956 73.96 790.668 73.96C792.38 73.96 793.924 74.336 795.3 75.088C796.676 75.824 797.756 76.848 798.54 78.16C799.324 79.472 799.716 80.952 799.716 82.6C799.716 84.248 799.324 85.728 798.54 87.04C797.756 88.352 796.676 89.384 795.3 90.136C793.924 90.872 792.38 91.24 790.668 91.24ZM790.668 88.504C791.788 88.504 792.796 88.256 793.692 87.76C794.588 87.248 795.292 86.544 795.804 85.648C796.316 84.736 796.572 83.72 796.572 82.6C796.572 81.48 796.316 80.472 795.804 79.576C795.292 78.664 794.588 77.96 793.692 77.464C792.796 76.952 791.788 76.696 790.668 76.696C789.548 76.696 788.54 76.952 787.644 77.464C786.748 77.96 786.044 78.664 785.532 79.576C785.02 80.472 784.764 81.48 784.764 82.6C784.764 83.72 785.02 84.736 785.532 85.648C786.044 86.544 786.748 87.248 787.644 87.76C788.54 88.256 789.548 88.504 790.668 88.504ZM819.151 74.2V91H816.583L807.319 79.624V91H804.223V74.2H806.791L816.055 85.576V74.2H819.151Z" fill="#3366FE"/>
<path d="M284.228 644.84H278.66V642.2H292.916V644.84H287.348V659H284.228V644.84ZM309.058 656.384V659H296.458V642.2H308.722V644.816H299.578V649.184H307.69V651.752H299.578V656.384H309.058ZM321.441 659.24C319.745 659.24 318.209 658.872 316.833 658.136C315.473 657.384 314.401 656.352 313.617 655.04C312.849 653.728 312.465 652.248 312.465 650.6C312.465 648.952 312.857 647.472 313.641 646.16C314.425 644.848 315.497 643.824 316.857 643.088C318.233 642.336 319.769 641.96 321.465 641.96C322.841 641.96 324.097 642.2 325.233 642.68C326.369 643.16 327.329 643.856 328.113 644.768L326.097 646.664C324.881 645.352 323.385 644.696 321.609 644.696C320.457 644.696 319.425 644.952 318.513 645.464C317.601 645.96 316.889 646.656 316.377 647.552C315.865 648.448 315.609 649.464 315.609 650.6C315.609 651.736 315.865 652.752 316.377 653.648C316.889 654.544 317.601 655.248 318.513 655.76C319.425 656.256 320.457 656.504 321.609 656.504C323.385 656.504 324.881 655.84 326.097 654.512L328.113 656.432C327.329 657.344 326.361 658.04 325.209 658.52C324.073 659 322.817 659.24 321.441 659.24ZM347.231 642.2V659H344.111V651.8H335.423V659H332.303V642.2H335.423V649.136H344.111V642.2H347.231ZM367.861 642.2V659H365.293L356.029 647.624V659H352.933V642.2H355.501L364.765 653.576V642.2H367.861ZM373.562 642.2H376.682V659H373.562V642.2ZM390.202 659.24C388.506 659.24 386.97 658.872 385.594 658.136C384.234 657.384 383.162 656.352 382.378 655.04C381.61 653.728 381.226 652.248 381.226 650.6C381.226 648.952 381.618 647.472 382.402 646.16C383.186 644.848 384.258 643.824 385.618 643.088C386.994 642.336 388.53 641.96 390.226 641.96C391.602 641.96 392.858 642.2 393.994 642.68C395.13 643.16 396.09 643.856 396.874 644.768L394.858 646.664C393.642 645.352 392.146 644.696 390.37 644.696C389.218 644.696 388.186 644.952 387.274 645.464C386.362 645.96 385.65 646.656 385.138 647.552C384.626 648.448 384.37 649.464 384.37 650.6C384.37 651.736 384.626 652.752 385.138 653.648C385.65 654.544 386.362 655.248 387.274 655.76C388.186 656.256 389.218 656.504 390.37 656.504C392.146 656.504 393.642 655.84 394.858 654.512L396.874 656.432C396.09 657.344 395.122 658.04 393.97 658.52C392.834 659 391.578 659.24 390.202 659.24ZM411.608 655.112H403.208L401.552 659H398.336L405.896 642.2H408.968L416.552 659H413.288L411.608 655.112ZM410.576 652.664L407.408 645.32L404.264 652.664H410.576ZM419.889 642.2H423.009V656.36H431.793V659H419.889V642.2Z" fill="#3366FE"/>
<path d="M678.688 659L678.664 647.864L673.144 657.08H671.752L666.232 648.008V659H663.256V642.2H665.824L672.496 653.336L679.048 642.2H681.616L681.64 659H678.688ZM698.274 655.112H689.874L688.218 659H685.002L692.562 642.2H695.634L703.218 659H699.954L698.274 655.112ZM697.242 652.664L694.074 645.32L690.93 652.664H697.242ZM721.482 642.2V659H718.914L709.65 647.624V659H706.554V642.2H709.122L718.386 653.576V642.2H721.482ZM727.184 642.2H734.528C736.32 642.2 737.912 642.552 739.304 643.256C740.696 643.944 741.776 644.928 742.544 646.208C743.312 647.472 743.696 648.936 743.696 650.6C743.696 652.264 743.312 653.736 742.544 655.016C741.776 656.28 740.696 657.264 739.304 657.968C737.912 658.656 736.32 659 734.528 659H727.184V642.2ZM734.384 656.36C735.616 656.36 736.696 656.128 737.624 655.664C738.568 655.184 739.288 654.512 739.784 653.648C740.296 652.768 740.552 651.752 740.552 650.6C740.552 649.448 740.296 648.44 739.784 647.576C739.288 646.696 738.568 646.024 737.624 645.56C736.696 645.08 735.616 644.84 734.384 644.84H730.304V656.36H734.384ZM758.874 655.112H750.474L748.818 659H745.602L753.162 642.2H756.234L763.818 659H760.554L758.874 655.112ZM757.842 652.664L754.674 645.32L751.53 652.664H757.842ZM769.719 644.84H764.151V642.2H778.407V644.84H772.839V659H769.719V644.84ZM789.562 659.24C787.85 659.24 786.306 658.872 784.93 658.136C783.554 657.384 782.474 656.352 781.69 655.04C780.906 653.712 780.514 652.232 780.514 650.6C780.514 648.968 780.906 647.496 781.69 646.184C782.474 644.856 783.554 643.824 784.93 643.088C786.306 642.336 787.85 641.96 789.562 641.96C791.274 641.96 792.818 642.336 794.194 643.088C795.57 643.824 796.65 644.848 797.434 646.16C798.218 647.472 798.61 648.952 798.61 650.6C798.61 652.248 798.218 653.728 797.434 655.04C796.65 656.352 795.57 657.384 794.194 658.136C792.818 658.872 791.274 659.24 789.562 659.24ZM789.562 656.504C790.682 656.504 791.69 656.256 792.586 655.76C793.482 655.248 794.186 654.544 794.698 653.648C795.21 652.736 795.466 651.72 795.466 650.6C795.466 649.48 795.21 648.472 794.698 647.576C794.186 646.664 793.482 645.96 792.586 645.464C791.69 644.952 790.682 644.696 789.562 644.696C788.442 644.696 787.434 644.952 786.538 645.464C785.642 645.96 784.938 646.664 784.426 647.576C783.914 648.472 783.658 649.48 783.658 650.6C783.658 651.72 783.914 652.736 784.426 653.648C784.938 654.544 785.642 655.248 786.538 655.76C787.434 656.256 788.442 656.504 789.562 656.504ZM814.109 659L810.677 654.08C810.533 654.096 810.317 654.104 810.029 654.104H806.237V659H803.117V642.2H810.029C811.485 642.2 812.749 642.44 813.821 642.92C814.909 643.4 815.741 644.088 816.317 644.984C816.893 645.88 817.181 646.944 817.181 648.176C817.181 649.44 816.869 650.528 816.245 651.44C815.637 652.352 814.757 653.032 813.605 653.48L817.469 659H814.109ZM814.037 648.176C814.037 647.104 813.685 646.28 812.981 645.704C812.277 645.128 811.245 644.84 809.885 644.84H806.237V651.536H809.885C811.245 651.536 812.277 651.248 812.981 650.672C813.685 650.08 814.037 649.248 814.037 648.176ZM828.885 653.072V659H825.765V653.12L819.165 642.2H822.501L827.421 650.384L832.389 642.2H835.461L828.885 653.072Z" fill="#3366FE"/>
<path d="M870.032 363.24C868.336 363.24 866.8 362.872 865.424 362.136C864.064 361.384 862.992 360.352 862.208 359.04C861.44 357.728 861.056 356.248 861.056 354.6C861.056 352.952 861.448 351.472 862.232 350.16C863.016 348.848 864.088 347.824 865.448 347.088C866.824 346.336 868.36 345.96 870.056 345.96C871.432 345.96 872.688 346.2 873.824 346.68C874.96 347.16 875.92 347.856 876.704 348.768L874.688 350.664C873.472 349.352 871.976 348.696 870.2 348.696C869.048 348.696 868.016 348.952 867.104 349.464C866.192 349.96 865.48 350.656 864.968 351.552C864.456 352.448 864.2 353.464 864.2 354.6C864.2 355.736 864.456 356.752 864.968 357.648C865.48 358.544 866.192 359.248 867.104 359.76C868.016 360.256 869.048 360.504 870.2 360.504C871.976 360.504 873.472 359.84 874.688 358.512L876.704 360.432C875.92 361.344 874.952 362.04 873.8 362.52C872.664 363 871.408 363.24 870.032 363.24ZM888.39 363.24C886.678 363.24 885.134 362.872 883.758 362.136C882.382 361.384 881.302 360.352 880.518 359.04C879.734 357.712 879.342 356.232 879.342 354.6C879.342 352.968 879.734 351.496 880.518 350.184C881.302 348.856 882.382 347.824 883.758 347.088C885.134 346.336 886.678 345.96 888.39 345.96C890.102 345.96 891.646 346.336 893.022 347.088C894.398 347.824 895.478 348.848 896.262 350.16C897.046 351.472 897.438 352.952 897.438 354.6C897.438 356.248 897.046 357.728 896.262 359.04C895.478 360.352 894.398 361.384 893.022 362.136C891.646 362.872 890.102 363.24 888.39 363.24ZM888.39 360.504C889.51 360.504 890.518 360.256 891.414 359.76C892.31 359.248 893.014 358.544 893.526 357.648C894.038 356.736 894.294 355.72 894.294 354.6C894.294 353.48 894.038 352.472 893.526 351.576C893.014 350.664 892.31 349.96 891.414 349.464C890.518 348.952 889.51 348.696 888.39 348.696C887.27 348.696 886.262 348.952 885.366 349.464C884.47 349.96 883.766 350.664 883.254 351.576C882.742 352.472 882.486 353.48 882.486 354.6C882.486 355.72 882.742 356.736 883.254 357.648C883.766 358.544 884.47 359.248 885.366 359.76C886.262 360.256 887.27 360.504 888.39 360.504ZM917.377 363L917.353 351.864L911.833 361.08H910.441L904.921 352.008V363H901.945V346.2H904.513L911.185 357.336L917.737 346.2H920.305L920.329 363H917.377ZM932.979 346.2C934.435 346.2 935.699 346.44 936.771 346.92C937.859 347.4 938.691 348.088 939.267 348.984C939.843 349.88 940.131 350.944 940.131 352.176C940.131 353.392 939.843 354.456 939.267 355.368C938.691 356.264 937.859 356.952 936.771 357.432C935.699 357.912 934.435 358.152 932.979 358.152H929.187V363H926.067V346.2H932.979ZM932.835 355.512C934.195 355.512 935.227 355.224 935.931 354.648C936.635 354.072 936.987 353.248 936.987 352.176C936.987 351.104 936.635 350.28 935.931 349.704C935.227 349.128 934.195 348.84 932.835 348.84H929.187V355.512H932.835ZM957.047 360.384V363H944.447V346.2H956.711V348.816H947.567V353.184H955.679V355.752H947.567V360.384H957.047ZM965.133 348.84H959.565V346.2H973.821V348.84H968.253V363H965.133V348.84ZM989.962 360.384V363H977.362V346.2H989.626V348.816H980.482V353.184H988.594V355.752H980.482V360.384H989.962ZM1009.57 346.2V363H1007L997.736 351.624V363H994.64V346.2H997.208L1006.47 357.576V346.2H1009.57ZM1023.05 363.24C1021.35 363.24 1019.81 362.872 1018.44 362.136C1017.08 361.384 1016.01 360.352 1015.22 359.04C1014.45 357.728 1014.07 356.248 1014.07 354.6C1014.07 352.952 1014.46 351.472 1015.25 350.16C1016.03 348.848 1017.1 347.824 1018.46 347.088C1019.84 346.336 1021.37 345.96 1023.07 345.96C1024.45 345.96 1025.7 346.2 1026.84 346.68C1027.97 347.16 1028.93 347.856 1029.72 348.768L1027.7 350.664C1026.49 349.352 1024.99 348.696 1023.21 348.696C1022.06 348.696 1021.03 348.952 1020.12 349.464C1019.21 349.96 1018.49 350.656 1017.98 351.552C1017.47 352.448 1017.21 353.464 1017.21 354.6C1017.21 355.736 1017.47 356.752 1017.98 357.648C1018.49 358.544 1019.21 359.248 1020.12 359.76C1021.03 360.256 1022.06 360.504 1023.21 360.504C1024.99 360.504 1026.49 359.84 1027.7 358.512L1029.72 360.432C1028.93 361.344 1027.97 362.04 1026.81 362.52C1025.68 363 1024.42 363.24 1023.05 363.24ZM1040.92 357.072V363H1037.8V357.12L1031.2 346.2H1034.54L1039.46 354.384L1044.43 346.2H1047.5L1040.92 357.072Z" fill="#3366FE"/>
<path d="M70.5872 360.384V363H57.9872V346.2H70.2512V348.816H61.1072V353.184H69.2192V355.752H61.1072V360.384H70.5872ZM85.6619 363L81.1019 356.616L76.5899 363H73.0379L79.2779 354.432L73.3739 346.2H76.9019L81.1979 352.176L85.4459 346.2H88.8299L82.9499 354.312L89.2619 363H85.6619ZM99.268 346.2C100.724 346.2 101.988 346.44 103.06 346.92C104.148 347.4 104.98 348.088 105.556 348.984C106.132 349.88 106.42 350.944 106.42 352.176C106.42 353.392 106.132 354.456 105.556 355.368C104.98 356.264 104.148 356.952 103.06 357.432C101.988 357.912 100.724 358.152 99.268 358.152H95.476V363H92.356V346.2H99.268ZM99.124 355.512C100.484 355.512 101.516 355.224 102.22 354.648C102.924 354.072 103.276 353.248 103.276 352.176C103.276 351.104 102.924 350.28 102.22 349.704C101.516 349.128 100.484 348.84 99.124 348.84H95.476V355.512H99.124ZM123.336 360.384V363H110.736V346.2H123V348.816H113.856V353.184H121.968V355.752H113.856V360.384H123.336ZM139.006 363L135.574 358.08C135.43 358.096 135.214 358.104 134.926 358.104H131.134V363H128.014V346.2H134.926C136.382 346.2 137.646 346.44 138.718 346.92C139.806 347.4 140.638 348.088 141.214 348.984C141.79 349.88 142.078 350.944 142.078 352.176C142.078 353.44 141.766 354.528 141.142 355.44C140.534 356.352 139.654 357.032 138.502 357.48L142.366 363H139.006ZM138.934 352.176C138.934 351.104 138.582 350.28 137.878 349.704C137.174 349.128 136.142 348.84 134.782 348.84H131.134V355.536H134.782C136.142 355.536 137.174 355.248 137.878 354.672C138.582 354.08 138.934 353.248 138.934 352.176ZM146.768 346.2H149.888V363H146.768V346.2ZM168.233 360.384V363H155.633V346.2H167.897V348.816H158.753V353.184H166.865V355.752H158.753V360.384H168.233ZM187.839 346.2V363H185.271L176.007 351.624V363H172.911V346.2H175.479L184.743 357.576V346.2H187.839ZM201.316 363.24C199.62 363.24 198.084 362.872 196.708 362.136C195.348 361.384 194.276 360.352 193.492 359.04C192.724 357.728 192.34 356.248 192.34 354.6C192.34 352.952 192.732 351.472 193.516 350.16C194.3 348.848 195.372 347.824 196.732 347.088C198.108 346.336 199.644 345.96 201.34 345.96C202.716 345.96 203.972 346.2 205.108 346.68C206.244 347.16 207.204 347.856 207.988 348.768L205.972 350.664C204.756 349.352 203.26 348.696 201.484 348.696C200.332 348.696 199.3 348.952 198.388 349.464C197.476 349.96 196.764 350.656 196.252 351.552C195.74 352.448 195.484 353.464 195.484 354.6C195.484 355.736 195.74 356.752 196.252 357.648C196.764 358.544 197.476 359.248 198.388 359.76C199.3 360.256 200.332 360.504 201.484 360.504C203.26 360.504 204.756 359.84 205.972 358.512L207.988 360.432C207.204 361.344 206.236 362.04 205.084 362.52C203.948 363 202.692 363.24 201.316 363.24ZM224.778 360.384V363H212.178V346.2H224.442V348.816H215.298V353.184H223.41V355.752H215.298V360.384H224.778Z" fill="#3366FE"/>
<line x1="541.575" y1="116" x2="541.575" y2="616" stroke="black" stroke-width="5.15"/>
<path d="M327.5 489.5L758.219 240.77" stroke="black" stroke-width="5.15"/>
<path d="M758.219 491.23L327 242.5" stroke="black" stroke-width="5.15"/>
</svg>
